<svg width="400" height="400" viewBox="0 0 270 270" xmlns="http://www.w3.org/2000/svg"><defs><mask id="mask-background-color-1-1" maskUnits="userSpaceOnUse" x="0" y="0" width="270" height="270"><g fill="#fff"><rect x="0" y="0" width="270" height="270" rx="0"/></g></mask><mask id="mask-dot-color-1-1" maskUnits="userSpaceOnUse" x="0" y="0" width="270" height="270"><g fill="#fff"><rect x="10" y="90" width="10" height="10" transform="rotate(0,15,95)"/><rect x="10" y="120" width="10" height="10" transform="rotate(0,15,125)"/><rect x="10" y="130" width="10" height="10" transform="rotate(0,15,135)"/><rect x="10" y="160" width="10" height="10" transform="rotate(0,15,165)"/><rect x="20" y="100" width="10" height="10" transform="rotate(0,25,105)"/><rect x="20" y="120" width="10" height="10" transform="rotate(0,25,125)"/><rect x="20" y="150" width="10" height="10" transform="rotate(0,25,155)"/><rect x="30" y="90" width="10" height="10" transform="rotate(0,35,95)"/><rect x="30" y="110" width="10" height="10" transform="rotate(0,35,115)"/><rect x="30" y="150" width="10" height="10" transform="rotate(0,35,155)"/><rect x="30" y="170" width="10" height="10" transform="rotate(0,35,175)"/><rect x="40" y="90" width="10" height="10" transform="rotate(0,45,95)"/><rect x="40" y="130" width="10" height="10" transform="rotate(0,45,135)"/><rect x="40" y="140" width="10" height="10" transform="rotate(0,45,145)"/><rect x="40" y="150" width="10" height="10" transform="rotate(0,45,155)"/><rect x="40" y="160" width="10" height="10" transform="rotate(0,45,165)"/><rect x="40" y="170" width="10" height="10" transform="rotate(0,45,175)"/><rect x="50" y="120" width="10" height="10" transform="rotate(0,55,125)"/><rect x="50" y="130" width="10" height="10" transform="rotate(0,55,135)"/><rect x="50" y="140" width="10" height="10" transform="rotate(0,55,145)"/><rect x="50" y="150" width="10" height="10" transform="rotate(0,55,155)"/><rect x="50" y="160" width="10" height="10" transform="rotate(0,55,165)"/><rect x="60" y="90" width="10" height="10" transform="rotate(0,65,95)"/><rect x="60" y="100" width="10" height="10" transform="rotate(0,65,105)"/><rect x="60" y="110" width="10" height="10" transform="rotate(0,65,115)"/><rect x="60" y="150" width="10" height="10" transform="rotate(0,65,155)"/><rect x="60" y="170" width="10" height="10" transform="rotate(0,65,175)"/><rect x="70" y="90" width="10" height="10" transform="rotate(0,75,95)"/><rect x="70" y="110" width="10" height="10" transform="rotate(0,75,115)"/><rect x="70" y="130" width="10" height="10" transform="rotate(0,75,135)"/><rect x="70" y="150" width="10" height="10" transform="rotate(0,75,155)"/><rect x="70" y="170" width="10" height="10" transform="rotate(0,75,175)"/><rect x="80" y="90" width="10" height="10" transform="rotate(0,85,95)"/><rect x="80" y="110" width="10" height="10" transform="rotate(0,85,115)"/><rect x="80" y="130" width="10" height="10" transform="rotate(0,85,135)"/><rect x="80" y="150" width="10" height="10" transform="rotate(0,85,155)"/><rect x="90" y="10" width="10" height="10" transform="rotate(0,95,15)"/><rect x="90" y="20" width="10" height="10" transform="rotate(0,95,25)"/><rect x="90" y="40" width="10" height="10" transform="rotate(0,95,45)"/><rect x="90" y="70" width="10" height="10" transform="rotate(0,95,75)"/><rect x="90" y="80" width="10" height="10" transform="rotate(0,95,85)"/><rect x="90" y="110" width="10" height="10" transform="rotate(0,95,115)"/><rect x="90" y="160" width="10" height="10" transform="rotate(0,95,165)"/><rect x="90" y="170" width="10" height="10" transform="rotate(0,95,175)"/><rect x="90" y="180" width="10" height="10" transform="rotate(0,95,185)"/><rect x="90" y="190" width="10" height="10" transform="rotate(0,95,195)"/><rect x="90" y="200" width="10" height="10" transform="rotate(0,95,205)"/><rect x="90" y="220" width="10" height="10" transform="rotate(0,95,225)"/><rect x="90" y="230" width="10" height="10" transform="rotate(0,95,235)"/><rect x="90" y="250" width="10" height="10" transform="rotate(0,95,255)"/><rect x="100" y="10" width="10" height="10" transform="rotate(0,105,15)"/><rect x="100" y="20" width="10" height="10" transform="rotate(0,105,25)"/><rect x="100" y="30" width="10" height="10" transform="rotate(0,105,35)"/><rect x="100" y="40" width="10" height="10" transform="rotate(0,105,45)"/><rect x="100" y="50" width="10" height="10" transform="rotate(0,105,55)"/><rect x="100" y="110" width="10" height="10" transform="rotate(0,105,115)"/><rect x="100" y="170" width="10" height="10" transform="rotate(0,105,175)"/><rect x="100" y="180" width="10" height="10" transform="rotate(0,105,185)"/><rect x="100" y="190" width="10" height="10" transform="rotate(0,105,195)"/><rect x="100" y="210" width="10" height="10" transform="rotate(0,105,215)"/><rect x="100" y="220" width="10" height="10" transform="rotate(0,105,225)"/><rect x="100" y="240" width="10" height="10" transform="rotate(0,105,245)"/><rect x="110" y="30" width="10" height="10" transform="rotate(0,115,35)"/><rect x="110" y="50" width="10" height="10" transform="rotate(0,115,55)"/><rect x="110" y="70" width="10" height="10" transform="rotate(0,115,75)"/><rect x="110" y="90" width="10" height="10" transform="rotate(0,115,95)"/><rect x="110" y="100" width="10" height="10" transform="rotate(0,115,105)"/><rect x="110" y="120" width="10" height="10" transform="rotate(0,115,125)"/><rect x="110" y="130" width="10" height="10" transform="rotate(0,115,135)"/><rect x="110" y="150" width="10" height="10" transform="rotate(0,115,155)"/><rect x="110" y="160" width="10" height="10" transform="rotate(0,115,165)"/><rect x="110" y="170" width="10" height="10" transform="rotate(0,115,175)"/><rect x="110" y="200" width="10" height="10" transform="rotate(0,115,205)"/><rect x="110" y="220" width="10" height="10" transform="rotate(0,115,225)"/><rect x="110" y="250" width="10" height="10" transform="rotate(0,115,255)"/><rect x="120" y="20" width="10" height="10" transform="rotate(0,125,25)"/><rect x="120" y="30" width="10" height="10" transform="rotate(0,125,35)"/><rect x="120" y="60" width="10" height="10" transform="rotate(0,125,65)"/><rect x="120" y="90" width="10" height="10" transform="rotate(0,125,95)"/><rect x="120" y="100" width="10" height="10" transform="rotate(0,125,105)"/><rect x="120" y="110" width="10" height="10" transform="rotate(0,125,115)"/><rect x="120" y="140" width="10" height="10" transform="rotate(0,125,145)"/><rect x="120" y="170" width="10" height="10" transform="rotate(0,125,175)"/><rect x="120" y="190" width="10" height="10" transform="rotate(0,125,195)"/><rect x="120" y="210" width="10" height="10" transform="rotate(0,125,215)"/><rect x="120" y="230" width="10" height="10" transform="rotate(0,125,235)"/><rect x="130" y="10" width="10" height="10" transform="rotate(0,135,15)"/><rect x="130" y="30" width="10" height="10" transform="rotate(0,135,35)"/><rect x="130" y="40" width="10" height="10" transform="rotate(0,135,45)"/><rect x="130" y="50" width="10" height="10" transform="rotate(0,135,55)"/><rect x="130" y="60" width="10" height="10" transform="rotate(0,135,65)"/><rect x="130" y="70" width="10" height="10" transform="rotate(0,135,75)"/><rect x="130" y="80" width="10" height="10" transform="rotate(0,135,85)"/><rect x="130" y="90" width="10" height="10" transform="rotate(0,135,95)"/><rect x="130" y="100" width="10" height="10" transform="rotate(0,135,105)"/><rect x="130" y="120" width="10" height="10" transform="rotate(0,135,125)"/><rect x="130" y="150" width="10" height="10" transform="rotate(0,135,155)"/><rect x="130" y="160" width="10" height="10" transform="rotate(0,135,165)"/><rect x="130" y="180" width="10" height="10" transform="rotate(0,135,185)"/><rect x="130" y="190" width="10" height="10" transform="rotate(0,135,195)"/><rect x="130" y="200" width="10" height="10" transform="rotate(0,135,205)"/><rect x="130" y="210" width="10" height="10" transform="rotate(0,135,215)"/><rect x="130" y="220" width="10" height="10" transform="rotate(0,135,225)"/><rect x="130" y="230" width="10" height="10" transform="rotate(0,135,235)"/><rect x="130" y="250" width="10" height="10" transform="rotate(0,135,255)"/><rect x="140" y="20" width="10" height="10" transform="rotate(0,145,25)"/><rect x="140" y="30" width="10" height="10" transform="rotate(0,145,35)"/><rect x="140" y="50" width="10" height="10" transform="rotate(0,145,55)"/><rect x="140" y="80" width="10" height="10" transform="rotate(0,145,85)"/><rect x="140" y="90" width="10" height="10" transform="rotate(0,145,95)"/><rect x="140" y="120" width="10" height="10" transform="rotate(0,145,125)"/><rect x="140" y="140" width="10" height="10" transform="rotate(0,145,145)"/><rect x="140" y="160" width="10" height="10" transform="rotate(0,145,165)"/><rect x="140" y="180" width="10" height="10" transform="rotate(0,145,185)"/><rect x="140" y="210" width="10" height="10" transform="rotate(0,145,215)"/><rect x="140" y="220" width="10" height="10" transform="rotate(0,145,225)"/><rect x="140" y="230" width="10" height="10" transform="rotate(0,145,235)"/><rect x="150" y="10" width="10" height="10" transform="rotate(0,155,15)"/><rect x="150" y="50" width="10" height="10" transform="rotate(0,155,55)"/><rect x="150" y="60" width="10" height="10" transform="rotate(0,155,65)"/><rect x="150" y="70" width="10" height="10" transform="rotate(0,155,75)"/><rect x="150" y="80" width="10" height="10" transform="rotate(0,155,85)"/><rect x="150" y="90" width="10" height="10" transform="rotate(0,155,95)"/><rect x="150" y="110" width="10" height="10" transform="rotate(0,155,115)"/><rect x="150" y="120" width="10" height="10" transform="rotate(0,155,125)"/><rect x="150" y="150" width="10" height="10" transform="rotate(0,155,155)"/><rect x="150" y="220" width="10" height="10" transform="rotate(0,155,225)"/><rect x="150" y="250" width="10" height="10" transform="rotate(0,155,255)"/><rect x="160" y="40" width="10" height="10" transform="rotate(0,165,45)"/><rect x="160" y="50" width="10" height="10" transform="rotate(0,165,55)"/><rect x="160" y="120" width="10" height="10" transform="rotate(0,165,125)"/><rect x="160" y="140" width="10" height="10" transform="rotate(0,165,145)"/><rect x="160" y="160" width="10" height="10" transform="rotate(0,165,165)"/><rect x="160" y="180" width="10" height="10" transform="rotate(0,165,185)"/><rect x="160" y="200" width="10" height="10" transform="rotate(0,165,205)"/><rect x="160" y="220" width="10" height="10" transform="rotate(0,165,225)"/><rect x="160" y="230" width="10" height="10" transform="rotate(0,165,235)"/><rect x="170" y="10" width="10" height="10" transform="rotate(0,175,15)"/><rect x="170" y="20" width="10" height="10" transform="rotate(0,175,25)"/><rect x="170" y="50" width="10" height="10" transform="rotate(0,175,55)"/><rect x="170" y="60" width="10" height="10" transform="rotate(0,175,65)"/><rect x="170" y="70" width="10" height="10" transform="rotate(0,175,75)"/><rect x="170" y="80" width="10" height="10" transform="rotate(0,175,85)"/><rect x="170" y="90" width="10" height="10" transform="rotate(0,175,95)"/><rect x="170" y="100" width="10" height="10" transform="rotate(0,175,105)"/><rect x="170" y="150" width="10" height="10" transform="rotate(0,175,155)"/><rect x="170" y="160" width="10" height="10" transform="rotate(0,175,165)"/><rect x="170" y="170" width="10" height="10" transform="rotate(0,175,175)"/><rect x="170" y="180" width="10" height="10" transform="rotate(0,175,185)"/><rect x="170" y="190" width="10" height="10" transform="rotate(0,175,195)"/><rect x="170" y="200" width="10" height="10" transform="rotate(0,175,205)"/><rect x="170" y="210" width="10" height="10" transform="rotate(0,175,215)"/><rect x="170" y="220" width="10" height="10" transform="rotate(0,175,225)"/><rect x="170" y="230" width="10" height="10" transform="rotate(0,175,235)"/><rect x="180" y="130" width="10" height="10" transform="rotate(0,185,135)"/><rect x="180" y="140" width="10" height="10" transform="rotate(0,185,145)"/><rect x="180" y="150" width="10" height="10" transform="rotate(0,185,155)"/><rect x="180" y="170" width="10" height="10" transform="rotate(0,185,175)"/><rect x="180" y="210" width="10" height="10" transform="rotate(0,185,215)"/><rect x="180" y="220" width="10" height="10" transform="rotate(0,185,225)"/><rect x="190" y="90" width="10" height="10" transform="rotate(0,195,95)"/><rect x="190" y="110" width="10" height="10" transform="rotate(0,195,115)"/><rect x="190" y="120" width="10" height="10" transform="rotate(0,195,125)"/><rect x="190" y="130" width="10" height="10" transform="rotate(0,195,135)"/><rect x="190" y="140" width="10" height="10" transform="rotate(0,195,145)"/><rect x="190" y="160" width="10" height="10" transform="rotate(0,195,165)"/><rect x="190" y="170" width="10" height="10" transform="rotate(0,195,175)"/><rect x="190" y="190" width="10" height="10" transform="rotate(0,195,195)"/><rect x="190" y="210" width="10" height="10" transform="rotate(0,195,215)"/><rect x="190" y="220" width="10" height="10" transform="rotate(0,195,225)"/><rect x="190" y="230" width="10" height="10" transform="rotate(0,195,235)"/><rect x="190" y="250" width="10" height="10" transform="rotate(0,195,255)"/><rect x="200" y="100" width="10" height="10" transform="rotate(0,205,105)"/><rect x="200" y="110" width="10" height="10" transform="rotate(0,205,115)"/><rect x="200" y="140" width="10" height="10" transform="rotate(0,205,145)"/><rect x="200" y="160" width="10" height="10" transform="rotate(0,205,165)"/><rect x="200" y="170" width="10" height="10" transform="rotate(0,205,175)"/><rect x="200" y="210" width="10" height="10" transform="rotate(0,205,215)"/><rect x="200" y="250" width="10" height="10" transform="rotate(0,205,255)"/><rect x="210" y="110" width="10" height="10" transform="rotate(0,215,115)"/><rect x="210" y="130" width="10" height="10" transform="rotate(0,215,135)"/><rect x="210" y="140" width="10" height="10" transform="rotate(0,215,145)"/><rect x="210" y="150" width="10" height="10" transform="rotate(0,215,155)"/><rect x="210" y="160" width="10" height="10" transform="rotate(0,215,165)"/><rect x="210" y="170" width="10" height="10" transform="rotate(0,215,175)"/><rect x="210" y="180" width="10" height="10" transform="rotate(0,215,185)"/><rect x="210" y="190" width="10" height="10" transform="rotate(0,215,195)"/><rect x="210" y="200" width="10" height="10" transform="rotate(0,215,205)"/><rect x="210" y="210" width="10" height="10" transform="rotate(0,215,215)"/><rect x="210" y="220" width="10" height="10" transform="rotate(0,215,225)"/><rect x="210" y="230" width="10" height="10" transform="rotate(0,215,235)"/><rect x="210" y="240" width="10" height="10" transform="rotate(0,215,245)"/><rect x="210" y="250" width="10" height="10" transform="rotate(0,215,255)"/><rect x="220" y="90" width="10" height="10" transform="rotate(0,225,95)"/><rect x="220" y="120" width="10" height="10" transform="rotate(0,225,125)"/><rect x="220" y="170" width="10" height="10" transform="rotate(0,225,175)"/><rect x="220" y="210" width="10" height="10" transform="rotate(0,225,215)"/><rect x="220" y="220" width="10" height="10" transform="rotate(0,225,225)"/><rect x="220" y="250" width="10" height="10" transform="rotate(0,225,255)"/><rect x="230" y="120" width="10" height="10" transform="rotate(0,235,125)"/><rect x="230" y="130" width="10" height="10" transform="rotate(0,235,135)"/><rect x="230" y="150" width="10" height="10" transform="rotate(0,235,155)"/><rect x="230" y="170" width="10" height="10" transform="rotate(0,235,175)"/><rect x="230" y="180" width="10" height="10" transform="rotate(0,235,185)"/><rect x="230" y="190" width="10" height="10" transform="rotate(0,235,195)"/><rect x="230" y="220" width="10" height="10" transform="rotate(0,235,225)"/><rect x="230" y="230" width="10" height="10" transform="rotate(0,235,235)"/><rect x="230" y="240" width="10" height="10" transform="rotate(0,235,245)"/><rect x="230" y="250" width="10" height="10" transform="rotate(0,235,255)"/><rect x="240" y="90" width="10" height="10" transform="rotate(0,245,95)"/><rect x="240" y="100" width="10" height="10" transform="rotate(0,245,105)"/><rect x="240" y="130" width="10" height="10" transform="rotate(0,245,135)"/><rect x="240" y="150" width="10" height="10" transform="rotate(0,245,155)"/><rect x="240" y="170" width="10" height="10" transform="rotate(0,245,175)"/><rect x="240" y="190" width="10" height="10" transform="rotate(0,245,195)"/><rect x="240" y="200" width="10" height="10" transform="rotate(0,245,205)"/><rect x="240" y="220" width="10" height="10" transform="rotate(0,245,225)"/><rect x="240" y="230" width="10" height="10" transform="rotate(0,245,235)"/><rect x="240" y="250" width="10" height="10" transform="rotate(0,245,255)"/><rect x="250" y="90" width="10" height="10" transform="rotate(0,255,95)"/><rect x="250" y="130" width="10" height="10" transform="rotate(0,255,135)"/><rect x="250" y="140" width="10" height="10" transform="rotate(0,255,145)"/><rect x="250" y="160" width="10" height="10" transform="rotate(0,255,165)"/><rect x="250" y="170" width="10" height="10" transform="rotate(0,255,175)"/><rect x="250" y="180" width="10" height="10" transform="rotate(0,255,185)"/><rect x="250" y="190" width="10" height="10" transform="rotate(0,255,195)"/><rect x="250" y="200" width="10" height="10" transform="rotate(0,255,205)"/><rect x="250" y="220" width="10" height="10" transform="rotate(0,255,225)"/><rect x="250" y="250" width="10" height="10" transform="rotate(0,255,255)"/></g></mask><mask id="mask-corners-square-color-0-0-1-1" maskUnits="userSpaceOnUse" x="0" y="0" width="270" height="270"><g fill="#fff"><path clip-rule="evenodd" d="M 10 35 v 20 a 25 25, 0, 0, 0, 25 25 h 20 a 25 25, 0, 0, 0, 25 -25 v -20 a 25 25, 0, 0, 0, -25 -25 h -20 a 25 25, 0, 0, 0, -25 25 z M 35 20 h 20 a 15 15, 0, 0, 1, 15 15 v 20 a 15 15, 0, 0, 1, -15 15 h -20 a 15 15, 0, 0, 1, -15 -15 v -20 a 15 15, 0, 0, 1, 15 -15 z" transform="rotate(0,45,45)"/></g></mask><mask id="mask-corners-dot-color-0-0-1-1" maskUnits="userSpaceOnUse" x="0" y="0" width="270" height="270"><g fill="#fff"><circle cx="45" cy="45" r="14.2857143" transform="rotate(0,45,45)"/></g></mask><mask id="mask-corners-square-color-1-0-1-1" maskUnits="userSpaceOnUse" x="0" y="0" width="270" height="270"><g fill="#fff"><path clip-rule="evenodd" d="M 190 35 v 20 a 25 25, 0, 0, 0, 25 25 h 20 a 25 25, 0, 0, 0, 25 -25 v -20 a 25 25, 0, 0, 0, -25 -25 h -20 a 25 25, 0, 0, 0, -25 25 z M 215 20 h 20 a 15 15, 0, 0, 1, 15 15 v 20 a 15 15, 0, 0, 1, -15 15 h -20 a 15 15, 0, 0, 1, -15 -15 v -20 a 15 15, 0, 0, 1, 15 -15 z" transform="rotate(90,225,45)"/></g></mask><mask id="mask-corners-dot-color-1-0-1-1" maskUnits="userSpaceOnUse" x="0" y="0" width="270" height="270"><g fill="#fff"><circle cx="225" cy="45" r="14.2857143" transform="rotate(90,225,45)"/></g></mask><mask id="mask-corners-square-color-0-1-1-1" maskUnits="userSpaceOnUse" x="0" y="0" width="270" height="270"><g fill="#fff"><path clip-rule="evenodd" d="M 10 215 v 20 a 25 25, 0, 0, 0, 25 25 h 20 a 25 25, 0, 0, 0, 25 -25 v -20 a 25 25, 0, 0, 0, -25 -25 h -20 a 25 25, 0, 0, 0, -25 25 z M 35 200 h 20 a 15 15, 0, 0, 1, 15 15 v 20 a 15 15, 0, 0, 1, -15 15 h -20 a 15 15, 0, 0, 1, -15 -15 v -20 a 15 15, 0, 0, 1, 15 -15 z" transform="rotate(-90,45,225)"/></g></mask><mask id="mask-corners-dot-color-0-1-1-1" maskUnits="userSpaceOnUse" x="0" y="0" width="270" height="270"><g fill="#fff"><circle cx="45" cy="225" r="14.2857143" transform="rotate(-90,45,225)"/></g></mask></defs><rect x="0" y="0" height="270" width="270" style="mask:url(#mask-background-color-1-1)" fill="#ffffff"/><g><g transform="translate(4, 4) scale(0.9703703703703703)"><rect x="10" y="10" height="250" width="250" style="mask:url(#mask-dot-color-1-1)" fill="#000000"/><rect x="10" y="10" height="70" width="70" style="mask:url(#mask-corners-square-color-0-0-1-1)" fill="#000000"/><rect x="30" y="30" height="30" width="30" style="mask:url(#mask-corners-dot-color-0-0-1-1)" fill="#000000"/><rect x="190" y="10" height="70" width="70" style="mask:url(#mask-corners-square-color-1-0-1-1)" fill="#000000"/><rect x="210" y="30" height="30" width="30" style="mask:url(#mask-corners-dot-color-1-0-1-1)" fill="#000000"/><rect x="10" y="190" height="70" width="70" style="mask:url(#mask-corners-square-color-0-1-1-1)" fill="#000000"/><rect x="30" y="210" height="30" width="30" style="mask:url(#mask-corners-dot-color-0-1-1-1)" fill="#000000"/></g></g></svg>