<svg width="400" height="400" viewBox="0 0 270 270" xmlns="http://www.w3.org/2000/svg"><defs><mask id="mask-background-color-5-5" maskUnits="userSpaceOnUse" x="0" y="0" width="270" height="270"><g fill="#fff"><rect x="0" y="0" width="270" height="270" rx="0"/></g></mask><mask id="mask-dot-color-5-5" maskUnits="userSpaceOnUse" x="0" y="0" width="270" height="270"><g fill="#fff"><path d="M 10 90 v 5 a 5 5, 0, 0, 0, 5 5 h 5 v -5 a 5 5, 0, 0, 0, -5 -5 z" transform="rotate(90,15,95)"/><path d="M 10 120 v 10 h 10 v -5 a 5 5, 0, 0, 0, -5 -5 z" transform="rotate(-90,15,125)"/><path d="M 10 130 v 10 h 10 v -5 a 5 5, 0, 0, 0, -5 -5 z" transform="rotate(90,15,135)"/><path d="M 10 160 v 5 a 5 5, 0, 0, 0, 5 5 h 5 v -5 a 5 5, 0, 0, 0, -5 -5 z" transform="rotate(90,15,165)"/><path d="M 20 100 v 5 a 5 5, 0, 0, 0, 5 5 h 5 v -5 a 5 5, 0, 0, 0, -5 -5 z" transform="rotate(90,25,105)"/><path d="M 20 120 v 10 h 10 v -5 a 5 5, 0, 0, 0, -5 -5 z" transform="rotate(90,25,125)"/><path d="M 20 150 v 10 h 10 v -5 a 5 5, 0, 0, 0, -5 -5 z" transform="rotate(-90,25,155)"/><path d="M 30 90 v 10 h 10 v -5 a 5 5, 0, 0, 0, -5 -5 z" transform="rotate(-90,35,95)"/><path d="M 30 110 v 5 a 5 5, 0, 0, 0, 5 5 h 5 v -5 a 5 5, 0, 0, 0, -5 -5 z" transform="rotate(90,35,115)"/><rect x="30" y="150" width="10" height="10" transform="rotate(0,35,155)"/><path d="M 30 170 v 10 h 10 v -5 a 5 5, 0, 0, 0, -5 -5 z" transform="rotate(-90,35,175)"/><path d="M 40 90 v 10 h 10 v -5 a 5 5, 0, 0, 0, -5 -5 z" transform="rotate(90,45,95)"/><path d="M 40 130 v 10 h 10 v -5 a 5 5, 0, 0, 0, -5 -5 z" transform="rotate(-90,45,135)"/><rect x="40" y="140" width="10" height="10" transform="rotate(0,45,145)"/><rect x="40" y="150" width="10" height="10" transform="rotate(0,45,155)"/><rect x="40" y="160" width="10" height="10" transform="rotate(0,45,165)"/><path d="M 40 170 v 10 h 10 v -5 a 5 5, 0, 0, 0, -5 -5 z" transform="rotate(90,45,175)"/><path d="M 50 120 v 10 h 10 v -5 a 5 5, 0, 0, 0, -5 -5 z" transform="rotate(-90,55,125)"/><rect x="50" y="130" width="10" height="10" transform="rotate(0,55,135)"/><rect x="50" y="140" width="10" height="10" transform="rotate(0,55,145)"/><rect x="50" y="150" width="10" height="10" transform="rotate(0,55,155)"/><path d="M 50 160 v 10 h 10 v -5 a 5 5, 0, 0, 0, -5 -5 z" transform="rotate(90,55,165)"/><path d="M 60 90 v 10 h 10 v -5 a 5 5, 0, 0, 0, -5 -5 z" transform="rotate(-90,65,95)"/><rect x="60" y="100" width="10" height="10" transform="rotate(0,65,105)"/><rect x="60" y="110" width="10" height="10" transform="rotate(0,65,115)"/><rect x="60" y="150" width="10" height="10" transform="rotate(0,65,155)"/><path d="M 60 170 v 10 h 10 v -5 a 5 5, 0, 0, 0, -5 -5 z" transform="rotate(-90,65,175)"/><rect x="70" y="90" width="10" height="10" transform="rotate(0,75,95)"/><rect x="70" y="110" width="10" height="10" transform="rotate(0,75,115)"/><path d="M 70 130 v 10 h 10 v -5 a 5 5, 0, 0, 0, -5 -5 z" transform="rotate(-90,75,135)"/><rect x="70" y="150" width="10" height="10" transform="rotate(0,75,155)"/><path d="M 70 170 v 10 h 10 v -5 a 5 5, 0, 0, 0, -5 -5 z" transform="rotate(90,75,175)"/><path d="M 80 90 v 10 h 10 v -5 a 5 5, 0, 0, 0, -5 -5 z" transform="rotate(90,85,95)"/><rect x="80" y="110" width="10" height="10" transform="rotate(0,85,115)"/><path d="M 80 130 v 10 h 10 v -5 a 5 5, 0, 0, 0, -5 -5 z" transform="rotate(90,85,135)"/><path d="M 80 150 v 10 h 10 v -5 a 5 5, 0, 0, 0, -5 -5 z" transform="rotate(90,85,155)"/><path d="M 90 10 v 10 h 10 v -5 a 5 5, 0, 0, 0, -5 -5 z" transform="rotate(-90,95,15)"/><rect x="90" y="20" width="10" height="10" transform="rotate(0,95,25)"/><path d="M 90 40 v 10 h 10 v -5 a 5 5, 0, 0, 0, -5 -5 z" transform="rotate(-90,95,45)"/><path d="M 90 70 v 10 h 10 v -5 a 5 5, 0, 0, 0, -5 -5 z" transform="rotate(-90,95,75)"/><path d="M 90 80 v 10 h 10 v -5 a 5 5, 0, 0, 0, -5 -5 z" transform="rotate(90,95,85)"/><rect x="90" y="110" width="10" height="10" transform="rotate(0,95,115)"/><path d="M 90 160 v 10 h 10 v -5 a 5 5, 0, 0, 0, -5 -5 z" transform="rotate(-90,95,165)"/><rect x="90" y="170" width="10" height="10" transform="rotate(0,95,175)"/><rect x="90" y="180" width="10" height="10" transform="rotate(0,95,185)"/><rect x="90" y="190" width="10" height="10" transform="rotate(0,95,195)"/><path d="M 90 200 v 10 h 10 v -5 a 5 5, 0, 0, 0, -5 -5 z" transform="rotate(90,95,205)"/><path d="M 90 220 v 10 h 10 v -5 a 5 5, 0, 0, 0, -5 -5 z" transform="rotate(-90,95,225)"/><path d="M 90 230 v 10 h 10 v -5 a 5 5, 0, 0, 0, -5 -5 z" transform="rotate(90,95,235)"/><path d="M 90 250 v 5 a 5 5, 0, 0, 0, 5 5 h 5 v -5 a 5 5, 0, 0, 0, -5 -5 z" transform="rotate(90,95,255)"/><rect x="100" y="10" width="10" height="10" transform="rotate(0,105,15)"/><rect x="100" y="20" width="10" height="10" transform="rotate(0,105,25)"/><rect x="100" y="30" width="10" height="10" transform="rotate(0,105,35)"/><rect x="100" y="40" width="10" height="10" transform="rotate(0,105,45)"/><rect x="100" y="50" width="10" height="10" transform="rotate(0,105,55)"/><path d="M 100 110 v 10 h 10 v -5 a 5 5, 0, 0, 0, -5 -5 z" transform="rotate(90,105,115)"/><rect x="100" y="170" width="10" height="10" transform="rotate(0,105,175)"/><rect x="100" y="180" width="10" height="10" transform="rotate(0,105,185)"/><path d="M 100 190 v 10 h 10 v -5 a 5 5, 0, 0, 0, -5 -5 z" transform="rotate(90,105,195)"/><path d="M 100 210 v 10 h 10 v -5 a 5 5, 0, 0, 0, -5 -5 z" transform="rotate(-90,105,215)"/><rect x="100" y="220" width="10" height="10" transform="rotate(0,105,225)"/><path d="M 100 240 v 5 a 5 5, 0, 0, 0, 5 5 h 5 v -5 a 5 5, 0, 0, 0, -5 -5 z" transform="rotate(90,105,245)"/><rect x="110" y="30" width="10" height="10" transform="rotate(0,115,35)"/><path d="M 110 50 v 10 h 10 v -5 a 5 5, 0, 0, 0, -5 -5 z" transform="rotate(90,115,55)"/><path d="M 110 70 v 5 a 5 5, 0, 0, 0, 5 5 h 5 v -5 a 5 5, 0, 0, 0, -5 -5 z" transform="rotate(90,115,75)"/><path d="M 110 90 v 10 h 10 v -5 a 5 5, 0, 0, 0, -5 -5 z" transform="rotate(-90,115,95)"/><rect x="110" y="100" width="10" height="10" transform="rotate(0,115,105)"/><path d="M 110 120 v 10 h 10 v -5 a 5 5, 0, 0, 0, -5 -5 z" transform="rotate(-90,115,125)"/><path d="M 110 130 v 10 h 10 v -5 a 5 5, 0, 0, 0, -5 -5 z" transform="rotate(90,115,135)"/><path d="M 110 150 v 10 h 10 v -5 a 5 5, 0, 0, 0, -5 -5 z" transform="rotate(-90,115,155)"/><rect x="110" y="160" width="10" height="10" transform="rotate(0,115,165)"/><rect x="110" y="170" width="10" height="10" transform="rotate(0,115,175)"/><path d="M 110 200 v 5 a 5 5, 0, 0, 0, 5 5 h 5 v -5 a 5 5, 0, 0, 0, -5 -5 z" transform="rotate(90,115,205)"/><path d="M 110 220 v 10 h 10 v -5 a 5 5, 0, 0, 0, -5 -5 z" transform="rotate(90,115,225)"/><path d="M 110 250 v 5 a 5 5, 0, 0, 0, 5 5 h 5 v -5 a 5 5, 0, 0, 0, -5 -5 z" transform="rotate(90,115,255)"/><path d="M 120 20 v 10 h 10 v -5 a 5 5, 0, 0, 0, -5 -5 z" transform="rotate(-90,125,25)"/><rect x="120" y="30" width="10" height="10" transform="rotate(0,125,35)"/><path d="M 120 60 v 10 h 10 v -5 a 5 5, 0, 0, 0, -5 -5 z" transform="rotate(-90,125,65)"/><rect x="120" y="90" width="10" height="10" transform="rotate(0,125,95)"/><rect x="120" y="100" width="10" height="10" transform="rotate(0,125,105)"/><path d="M 120 110 v 10 h 10 v -5 a 5 5, 0, 0, 0, -5 -5 z" transform="rotate(90,125,115)"/><path d="M 120 140 v 5 a 5 5, 0, 0, 0, 5 5 h 5 v -5 a 5 5, 0, 0, 0, -5 -5 z" transform="rotate(90,125,145)"/><path d="M 120 170 v 10 h 10 v -5 a 5 5, 0, 0, 0, -5 -5 z" transform="rotate(90,125,175)"/><path d="M 120 190 v 10 h 10 v -5 a 5 5, 0, 0, 0, -5 -5 z" transform="rotate(-90,125,195)"/><path d="M 120 210 v 10 h 10 v -5 a 5 5, 0, 0, 0, -5 -5 z" transform="rotate(-90,125,215)"/><path d="M 120 230 v 10 h 10 v -5 a 5 5, 0, 0, 0, -5 -5 z" transform="rotate(-90,125,235)"/><path d="M 130 10 v 5 a 5 5, 0, 0, 0, 5 5 h 5 v -5 a 5 5, 0, 0, 0, -5 -5 z" transform="rotate(90,135,15)"/><rect x="130" y="30" width="10" height="10" transform="rotate(0,135,35)"/><rect x="130" y="40" width="10" height="10" transform="rotate(0,135,45)"/><rect x="130" y="50" width="10" height="10" transform="rotate(0,135,55)"/><rect x="130" y="60" width="10" height="10" transform="rotate(0,135,65)"/><rect x="130" y="70" width="10" height="10" transform="rotate(0,135,75)"/><rect x="130" y="80" width="10" height="10" transform="rotate(0,135,85)"/><rect x="130" y="90" width="10" height="10" transform="rotate(0,135,95)"/><path d="M 130 100 v 10 h 10 v -5 a 5 5, 0, 0, 0, -5 -5 z" transform="rotate(90,135,105)"/><path d="M 130 120 v 10 h 10 v -5 a 5 5, 0, 0, 0, -5 -5 z" transform="rotate(-90,135,125)"/><path d="M 130 150 v 10 h 10 v -5 a 5 5, 0, 0, 0, -5 -5 z" transform="rotate(-90,135,155)"/><rect x="130" y="160" width="10" height="10" transform="rotate(0,135,165)"/><path d="M 130 180 v 10 h 10 v -5 a 5 5, 0, 0, 0, -5 -5 z" transform="rotate(-90,135,185)"/><rect x="130" y="190" width="10" height="10" transform="rotate(0,135,195)"/><rect x="130" y="200" width="10" height="10" transform="rotate(0,135,205)"/><rect x="130" y="210" width="10" height="10" transform="rotate(0,135,215)"/><rect x="130" y="220" width="10" height="10" transform="rotate(0,135,225)"/><rect x="130" y="230" width="10" height="10" transform="rotate(0,135,235)"/><path d="M 130 250 v 5 a 5 5, 0, 0, 0, 5 5 h 5 v -5 a 5 5, 0, 0, 0, -5 -5 z" transform="rotate(90,135,255)"/><path d="M 140 20 v 10 h 10 v -5 a 5 5, 0, 0, 0, -5 -5 z" transform="rotate(-90,145,25)"/><path d="M 140 30 v 10 h 10 v -5 a 5 5, 0, 0, 0, -5 -5 z" transform="rotate(90,145,35)"/><rect x="140" y="50" width="10" height="10" transform="rotate(0,145,55)"/><rect x="140" y="80" width="10" height="10" transform="rotate(0,145,85)"/><rect x="140" y="90" width="10" height="10" transform="rotate(0,145,95)"/><rect x="140" y="120" width="10" height="10" transform="rotate(0,145,125)"/><path d="M 140 140 v 5 a 5 5, 0, 0, 0, 5 5 h 5 v -5 a 5 5, 0, 0, 0, -5 -5 z" transform="rotate(90,145,145)"/><path d="M 140 160 v 10 h 10 v -5 a 5 5, 0, 0, 0, -5 -5 z" transform="rotate(90,145,165)"/><path d="M 140 180 v 10 h 10 v -5 a 5 5, 0, 0, 0, -5 -5 z" transform="rotate(90,145,185)"/><rect x="140" y="210" width="10" height="10" transform="rotate(0,145,215)"/><rect x="140" y="220" width="10" height="10" transform="rotate(0,145,225)"/><path d="M 140 230 v 10 h 10 v -5 a 5 5, 0, 0, 0, -5 -5 z" transform="rotate(90,145,235)"/><path d="M 150 10 v 5 a 5 5, 0, 0, 0, 5 5 h 5 v -5 a 5 5, 0, 0, 0, -5 -5 z" transform="rotate(90,155,15)"/><rect x="150" y="50" width="10" height="10" transform="rotate(0,155,55)"/><rect x="150" y="60" width="10" height="10" transform="rotate(0,155,65)"/><rect x="150" y="70" width="10" height="10" transform="rotate(0,155,75)"/><rect x="150" y="80" width="10" height="10" transform="rotate(0,155,85)"/><path d="M 150 90 v 10 h 10 v -5 a 5 5, 0, 0, 0, -5 -5 z" transform="rotate(90,155,95)"/><path d="M 150 110 v 10 h 10 v -5 a 5 5, 0, 0, 0, -5 -5 z" transform="rotate(-90,155,115)"/><rect x="150" y="120" width="10" height="10" transform="rotate(0,155,125)"/><path d="M 150 150 v 5 a 5 5, 0, 0, 0, 5 5 h 5 v -5 a 5 5, 0, 0, 0, -5 -5 z" transform="rotate(90,155,155)"/><rect x="150" y="220" width="10" height="10" transform="rotate(0,155,225)"/><path d="M 150 250 v 5 a 5 5, 0, 0, 0, 5 5 h 5 v -5 a 5 5, 0, 0, 0, -5 -5 z" transform="rotate(90,155,255)"/><path d="M 160 40 v 10 h 10 v -5 a 5 5, 0, 0, 0, -5 -5 z" transform="rotate(-90,165,45)"/><rect x="160" y="50" width="10" height="10" transform="rotate(0,165,55)"/><path d="M 160 120 v 10 h 10 v -5 a 5 5, 0, 0, 0, -5 -5 z" transform="rotate(90,165,125)"/><path d="M 160 140 v 5 a 5 5, 0, 0, 0, 5 5 h 5 v -5 a 5 5, 0, 0, 0, -5 -5 z" transform="rotate(90,165,145)"/><path d="M 160 160 v 10 h 10 v -5 a 5 5, 0, 0, 0, -5 -5 z" transform="rotate(-90,165,165)"/><path d="M 160 180 v 10 h 10 v -5 a 5 5, 0, 0, 0, -5 -5 z" transform="rotate(-90,165,185)"/><path d="M 160 200 v 10 h 10 v -5 a 5 5, 0, 0, 0, -5 -5 z" transform="rotate(-90,165,205)"/><rect x="160" y="220" width="10" height="10" transform="rotate(0,165,225)"/><rect x="160" y="230" width="10" height="10" transform="rotate(0,165,235)"/><path d="M 170 10 v 10 h 10 v -5 a 5 5, 0, 0, 0, -5 -5 z" transform="rotate(-90,175,15)"/><path d="M 170 20 v 10 h 10 v -5 a 5 5, 0, 0, 0, -5 -5 z" transform="rotate(90,175,25)"/><rect x="170" y="50" width="10" height="10" transform="rotate(0,175,55)"/><rect x="170" y="60" width="10" height="10" transform="rotate(0,175,65)"/><rect x="170" y="70" width="10" height="10" transform="rotate(0,175,75)"/><rect x="170" y="80" width="10" height="10" transform="rotate(0,175,85)"/><rect x="170" y="90" width="10" height="10" transform="rotate(0,175,95)"/><path d="M 170 100 v 10 h 10 v -5 a 5 5, 0, 0, 0, -5 -5 z" transform="rotate(90,175,105)"/><path d="M 170 150 v 10 h 10 v -5 a 5 5, 0, 0, 0, -5 -5 z" transform="rotate(-90,175,155)"/><rect x="170" y="160" width="10" height="10" transform="rotate(0,175,165)"/><rect x="170" y="170" width="10" height="10" transform="rotate(0,175,175)"/><rect x="170" y="180" width="10" height="10" transform="rotate(0,175,185)"/><rect x="170" y="190" width="10" height="10" transform="rotate(0,175,195)"/><rect x="170" y="200" width="10" height="10" transform="rotate(0,175,205)"/><rect x="170" y="210" width="10" height="10" transform="rotate(0,175,215)"/><rect x="170" y="220" width="10" height="10" transform="rotate(0,175,225)"/><path d="M 170 230 v 10 h 10 v -5 a 5 5, 0, 0, 0, -5 -5 z" transform="rotate(90,175,235)"/><path d="M 180 130 v 10 h 10 v -5 a 5 5, 0, 0, 0, -5 -5 z" transform="rotate(-90,185,135)"/><rect x="180" y="140" width="10" height="10" transform="rotate(0,185,145)"/><path d="M 180 150 v 10 h 10 v -5 a 5 5, 0, 0, 0, -5 -5 z" transform="rotate(90,185,155)"/><rect x="180" y="170" width="10" height="10" transform="rotate(0,185,175)"/><rect x="180" y="210" width="10" height="10" transform="rotate(0,185,215)"/><rect x="180" y="220" width="10" height="10" transform="rotate(0,185,225)"/><path d="M 190 90 v 5 a 5 5, 0, 0, 0, 5 5 h 5 v -5 a 5 5, 0, 0, 0, -5 -5 z" transform="rotate(90,195,95)"/><path d="M 190 110 v 10 h 10 v -5 a 5 5, 0, 0, 0, -5 -5 z" transform="rotate(-90,195,115)"/><rect x="190" y="120" width="10" height="10" transform="rotate(0,195,125)"/><rect x="190" y="130" width="10" height="10" transform="rotate(0,195,135)"/><rect x="190" y="140" width="10" height="10" transform="rotate(0,195,145)"/><path d="M 190 160 v 10 h 10 v -5 a 5 5, 0, 0, 0, -5 -5 z" transform="rotate(-90,195,165)"/><rect x="190" y="170" width="10" height="10" transform="rotate(0,195,175)"/><path d="M 190 190 v 5 a 5 5, 0, 0, 0, 5 5 h 5 v -5 a 5 5, 0, 0, 0, -5 -5 z" transform="rotate(90,195,195)"/><rect x="190" y="210" width="10" height="10" transform="rotate(0,195,215)"/><rect x="190" y="220" width="10" height="10" transform="rotate(0,195,225)"/><path d="M 190 230 v 10 h 10 v -5 a 5 5, 0, 0, 0, -5 -5 z" transform="rotate(90,195,235)"/><path d="M 190 250 v 10 h 10 v -5 a 5 5, 0, 0, 0, -5 -5 z" transform="rotate(-90,195,255)"/><path d="M 200 100 v 10 h 10 v -5 a 5 5, 0, 0, 0, -5 -5 z" transform="rotate(-90,205,105)"/><rect x="200" y="110" width="10" height="10" transform="rotate(0,205,115)"/><rect x="200" y="140" width="10" height="10" transform="rotate(0,205,145)"/><rect x="200" y="160" width="10" height="10" transform="rotate(0,205,165)"/><rect x="200" y="170" width="10" height="10" transform="rotate(0,205,175)"/><rect x="200" y="210" width="10" height="10" transform="rotate(0,205,215)"/><rect x="200" y="250" width="10" height="10" transform="rotate(0,205,255)"/><path d="M 210 110 v 10 h 10 v -5 a 5 5, 0, 0, 0, -5 -5 z" transform="rotate(90,215,115)"/><path d="M 210 130 v 10 h 10 v -5 a 5 5, 0, 0, 0, -5 -5 z" transform="rotate(-90,215,135)"/><rect x="210" y="140" width="10" height="10" transform="rotate(0,215,145)"/><rect x="210" y="150" width="10" height="10" transform="rotate(0,215,155)"/><rect x="210" y="160" width="10" height="10" transform="rotate(0,215,165)"/><rect x="210" y="170" width="10" height="10" transform="rotate(0,215,175)"/><rect x="210" y="180" width="10" height="10" transform="rotate(0,215,185)"/><rect x="210" y="190" width="10" height="10" transform="rotate(0,215,195)"/><rect x="210" y="200" width="10" height="10" transform="rotate(0,215,205)"/><rect x="210" y="210" width="10" height="10" transform="rotate(0,215,215)"/><rect x="210" y="220" width="10" height="10" transform="rotate(0,215,225)"/><rect x="210" y="230" width="10" height="10" transform="rotate(0,215,235)"/><rect x="210" y="240" width="10" height="10" transform="rotate(0,215,245)"/><rect x="210" y="250" width="10" height="10" transform="rotate(0,215,255)"/><path d="M 220 90 v 5 a 5 5, 0, 0, 0, 5 5 h 5 v -5 a 5 5, 0, 0, 0, -5 -5 z" transform="rotate(90,225,95)"/><path d="M 220 120 v 10 h 10 v -5 a 5 5, 0, 0, 0, -5 -5 z" transform="rotate(-90,225,125)"/><rect x="220" y="170" width="10" height="10" transform="rotate(0,225,175)"/><rect x="220" y="210" width="10" height="10" transform="rotate(0,225,215)"/><rect x="220" y="220" width="10" height="10" transform="rotate(0,225,225)"/><rect x="220" y="250" width="10" height="10" transform="rotate(0,225,255)"/><rect x="230" y="120" width="10" height="10" transform="rotate(0,235,125)"/><rect x="230" y="130" width="10" height="10" transform="rotate(0,235,135)"/><path d="M 230 150 v 10 h 10 v -5 a 5 5, 0, 0, 0, -5 -5 z" transform="rotate(-90,235,155)"/><rect x="230" y="170" width="10" height="10" transform="rotate(0,235,175)"/><rect x="230" y="180" width="10" height="10" transform="rotate(0,235,185)"/><rect x="230" y="190" width="10" height="10" transform="rotate(0,235,195)"/><rect x="230" y="220" width="10" height="10" transform="rotate(0,235,225)"/><rect x="230" y="230" width="10" height="10" transform="rotate(0,235,235)"/><rect x="230" y="240" width="10" height="10" transform="rotate(0,235,245)"/><rect x="230" y="250" width="10" height="10" transform="rotate(0,235,255)"/><path d="M 240 90 v 10 h 10 v -5 a 5 5, 0, 0, 0, -5 -5 z" transform="rotate(-90,245,95)"/><path d="M 240 100 v 10 h 10 v -5 a 5 5, 0, 0, 0, -5 -5 z" transform="rotate(90,245,105)"/><rect x="240" y="130" width="10" height="10" transform="rotate(0,245,135)"/><path d="M 240 150 v 10 h 10 v -5 a 5 5, 0, 0, 0, -5 -5 z" transform="rotate(90,245,155)"/><rect x="240" y="170" width="10" height="10" transform="rotate(0,245,175)"/><rect x="240" y="190" width="10" height="10" transform="rotate(0,245,195)"/><rect x="240" y="200" width="10" height="10" transform="rotate(0,245,205)"/><rect x="240" y="220" width="10" height="10" transform="rotate(0,245,225)"/><path d="M 240 230 v 10 h 10 v -5 a 5 5, 0, 0, 0, -5 -5 z" transform="rotate(90,245,235)"/><rect x="240" y="250" width="10" height="10" transform="rotate(0,245,255)"/><path d="M 250 90 v 10 h 10 v -5 a 5 5, 0, 0, 0, -5 -5 z" transform="rotate(90,255,95)"/><rect x="250" y="130" width="10" height="10" transform="rotate(0,255,135)"/><path d="M 250 140 v 10 h 10 v -5 a 5 5, 0, 0, 0, -5 -5 z" transform="rotate(90,255,145)"/><path d="M 250 160 v 10 h 10 v -5 a 5 5, 0, 0, 0, -5 -5 z" transform="rotate(-90,255,165)"/><rect x="250" y="170" width="10" height="10" transform="rotate(0,255,175)"/><rect x="250" y="180" width="10" height="10" transform="rotate(0,255,185)"/><rect x="250" y="190" width="10" height="10" transform="rotate(0,255,195)"/><path d="M 250 200 v 10 h 10 v -5 a 5 5, 0, 0, 0, -5 -5 z" transform="rotate(90,255,205)"/><path d="M 250 220 v 10 h 10 v -5 a 5 5, 0, 0, 0, -5 -5 z" transform="rotate(90,255,225)"/><path d="M 250 250 v 10 h 10 v -5 a 5 5, 0, 0, 0, -5 -5 z" transform="rotate(90,255,255)"/></g></mask><mask id="mask-corners-square-color-0-0-5-5" maskUnits="userSpaceOnUse" x="0" y="0" width="270" height="270"><g fill="#fff"><path clip-rule="evenodd" d="M 10 35 v 20 a 25 25, 0, 0, 0, 25 25 h 20 a 25 25, 0, 0, 0, 25 -25 v -20 a 25 25, 0, 0, 0, -25 -25 h -20 a 25 25, 0, 0, 0, -25 25 z M 35 20 h 20 a 15 15, 0, 0, 1, 15 15 v 20 a 15 15, 0, 0, 1, -15 15 h -20 a 15 15, 0, 0, 1, -15 -15 v -20 a 15 15, 0, 0, 1, 15 -15 z" transform="rotate(0,45,45)"/></g></mask><mask id="mask-corners-dot-color-0-0-5-5" maskUnits="userSpaceOnUse" x="0" y="0" width="270" height="270"><g fill="#fff"><circle cx="45" cy="45" r="14.2857143" transform="rotate(0,45,45)"/></g></mask><mask id="mask-corners-square-color-1-0-5-5" maskUnits="userSpaceOnUse" x="0" y="0" width="270" height="270"><g fill="#fff"><path clip-rule="evenodd" d="M 190 35 v 20 a 25 25, 0, 0, 0, 25 25 h 20 a 25 25, 0, 0, 0, 25 -25 v -20 a 25 25, 0, 0, 0, -25 -25 h -20 a 25 25, 0, 0, 0, -25 25 z M 215 20 h 20 a 15 15, 0, 0, 1, 15 15 v 20 a 15 15, 0, 0, 1, -15 15 h -20 a 15 15, 0, 0, 1, -15 -15 v -20 a 15 15, 0, 0, 1, 15 -15 z" transform="rotate(90,225,45)"/></g></mask><mask id="mask-corners-dot-color-1-0-5-5" maskUnits="userSpaceOnUse" x="0" y="0" width="270" height="270"><g fill="#fff"><circle cx="225" cy="45" r="14.2857143" transform="rotate(90,225,45)"/></g></mask><mask id="mask-corners-square-color-0-1-5-5" maskUnits="userSpaceOnUse" x="0" y="0" width="270" height="270"><g fill="#fff"><path clip-rule="evenodd" d="M 10 215 v 20 a 25 25, 0, 0, 0, 25 25 h 20 a 25 25, 0, 0, 0, 25 -25 v -20 a 25 25, 0, 0, 0, -25 -25 h -20 a 25 25, 0, 0, 0, -25 25 z M 35 200 h 20 a 15 15, 0, 0, 1, 15 15 v 20 a 15 15, 0, 0, 1, -15 15 h -20 a 15 15, 0, 0, 1, -15 -15 v -20 a 15 15, 0, 0, 1, 15 -15 z" transform="rotate(-90,45,225)"/></g></mask><mask id="mask-corners-dot-color-0-1-5-5" maskUnits="userSpaceOnUse" x="0" y="0" width="270" height="270"><g fill="#fff"><circle cx="45" cy="225" r="14.2857143" transform="rotate(-90,45,225)"/></g></mask></defs><rect x="0" y="0" height="270" width="270" style="mask:url(#mask-background-color-5-5)" fill="#ffffff"/><g><g transform="translate(4, 4) scale(0.9703703703703703)"><rect x="10" y="10" height="250" width="250" style="mask:url(#mask-dot-color-5-5)" fill="#9c27b0"/><rect x="10" y="10" height="70" width="70" style="mask:url(#mask-corners-square-color-0-0-5-5)" fill="#000000"/><rect x="30" y="30" height="30" width="30" style="mask:url(#mask-corners-dot-color-0-0-5-5)" fill="#000000"/><rect x="190" y="10" height="70" width="70" style="mask:url(#mask-corners-square-color-1-0-5-5)" fill="#000000"/><rect x="210" y="30" height="30" width="30" style="mask:url(#mask-corners-dot-color-1-0-5-5)" fill="#000000"/><rect x="10" y="190" height="70" width="70" style="mask:url(#mask-corners-square-color-0-1-5-5)" fill="#000000"/><rect x="30" y="210" height="30" width="30" style="mask:url(#mask-corners-dot-color-0-1-5-5)" fill="#000000"/></g></g></svg>