<svg width="400" height="400" viewBox="0 0 270 270" xmlns="http://www.w3.org/2000/svg"><defs><mask id="mask-background-color-2-2" maskUnits="userSpaceOnUse" x="0" y="0" width="270" height="270"><g fill="#fff"><rect x="0" y="0" width="270" height="270" rx="0"/></g></mask><mask id="mask-dot-color-2-2" maskUnits="userSpaceOnUse" x="0" y="0" width="270" height="270"><g fill="#fff"><circle cx="15" cy="95" r="5" transform="rotate(0,15,95)"/><path d="M 10 120 v 10 h 5 a 5 5, 0, 0, 0, 0 -10 z" transform="rotate(-90,15,125)"/><path d="M 10 130 v 10 h 5 a 5 5, 0, 0, 0, 0 -10 z" transform="rotate(90,15,135)"/><circle cx="15" cy="165" r="5" transform="rotate(0,15,165)"/><circle cx="25" cy="105" r="5" transform="rotate(0,25,105)"/><circle cx="25" cy="125" r="5" transform="rotate(0,25,125)"/><circle cx="25" cy="155" r="5" transform="rotate(0,25,155)"/><circle cx="35" cy="95" r="5" transform="rotate(0,35,95)"/><circle cx="35" cy="115" r="5" transform="rotate(0,35,115)"/><circle cx="35" cy="155" r="5" transform="rotate(0,35,155)"/><circle cx="35" cy="175" r="5" transform="rotate(0,35,175)"/><circle cx="45" cy="95" r="5" transform="rotate(0,45,95)"/><path d="M 40 130 v 10 h 5 a 5 5, 0, 0, 0, 0 -10 z" transform="rotate(-90,45,135)"/><rect x="40" y="140" width="10" height="10" transform="rotate(0,45,145)"/><rect x="40" y="150" width="10" height="10" transform="rotate(0,45,155)"/><rect x="40" y="160" width="10" height="10" transform="rotate(0,45,165)"/><path d="M 40 170 v 10 h 5 a 5 5, 0, 0, 0, 0 -10 z" transform="rotate(90,45,175)"/><path d="M 50 120 v 10 h 5 a 5 5, 0, 0, 0, 0 -10 z" transform="rotate(-90,55,125)"/><rect x="50" y="130" width="10" height="10" transform="rotate(0,55,135)"/><rect x="50" y="140" width="10" height="10" transform="rotate(0,55,145)"/><rect x="50" y="150" width="10" height="10" transform="rotate(0,55,155)"/><path d="M 50 160 v 10 h 5 a 5 5, 0, 0, 0, 0 -10 z" transform="rotate(90,55,165)"/><path d="M 60 90 v 10 h 5 a 5 5, 0, 0, 0, 0 -10 z" transform="rotate(-90,65,95)"/><rect x="60" y="100" width="10" height="10" transform="rotate(0,65,105)"/><path d="M 60 110 v 10 h 5 a 5 5, 0, 0, 0, 0 -10 z" transform="rotate(90,65,115)"/><circle cx="65" cy="155" r="5" transform="rotate(0,65,155)"/><circle cx="65" cy="175" r="5" transform="rotate(0,65,175)"/><circle cx="75" cy="95" r="5" transform="rotate(0,75,95)"/><circle cx="75" cy="115" r="5" transform="rotate(0,75,115)"/><circle cx="75" cy="135" r="5" transform="rotate(0,75,135)"/><circle cx="75" cy="155" r="5" transform="rotate(0,75,155)"/><circle cx="75" cy="175" r="5" transform="rotate(0,75,175)"/><circle cx="85" cy="95" r="5" transform="rotate(0,85,95)"/><circle cx="85" cy="115" r="5" transform="rotate(0,85,115)"/><circle cx="85" cy="135" r="5" transform="rotate(0,85,135)"/><circle cx="85" cy="155" r="5" transform="rotate(0,85,155)"/><path d="M 90 10 v 10 h 5 a 5 5, 0, 0, 0, 0 -10 z" transform="rotate(-90,95,15)"/><path d="M 90 20 v 10 h 5 a 5 5, 0, 0, 0, 0 -10 z" transform="rotate(90,95,25)"/><circle cx="95" cy="45" r="5" transform="rotate(0,95,45)"/><path d="M 90 70 v 10 h 5 a 5 5, 0, 0, 0, 0 -10 z" transform="rotate(-90,95,75)"/><path d="M 90 80 v 10 h 5 a 5 5, 0, 0, 0, 0 -10 z" transform="rotate(90,95,85)"/><circle cx="95" cy="115" r="5" transform="rotate(0,95,115)"/><path d="M 90 160 v 10 h 5 a 5 5, 0, 0, 0, 0 -10 z" transform="rotate(-90,95,165)"/><rect x="90" y="170" width="10" height="10" transform="rotate(0,95,175)"/><rect x="90" y="180" width="10" height="10" transform="rotate(0,95,185)"/><rect x="90" y="190" width="10" height="10" transform="rotate(0,95,195)"/><path d="M 90 200 v 10 h 5 a 5 5, 0, 0, 0, 0 -10 z" transform="rotate(90,95,205)"/><path d="M 90 220 v 10 h 5 a 5 5, 0, 0, 0, 0 -10 z" transform="rotate(-90,95,225)"/><path d="M 90 230 v 10 h 5 a 5 5, 0, 0, 0, 0 -10 z" transform="rotate(90,95,235)"/><circle cx="95" cy="255" r="5" transform="rotate(0,95,255)"/><path d="M 100 10 v 10 h 5 a 5 5, 0, 0, 0, 0 -10 z" transform="rotate(-90,105,15)"/><rect x="100" y="20" width="10" height="10" transform="rotate(0,105,25)"/><rect x="100" y="30" width="10" height="10" transform="rotate(0,105,35)"/><rect x="100" y="40" width="10" height="10" transform="rotate(0,105,45)"/><path d="M 100 50 v 10 h 5 a 5 5, 0, 0, 0, 0 -10 z" transform="rotate(90,105,55)"/><circle cx="105" cy="115" r="5" transform="rotate(0,105,115)"/><path d="M 100 170 v 10 h 5 a 5 5, 0, 0, 0, 0 -10 z" transform="rotate(-90,105,175)"/><rect x="100" y="180" width="10" height="10" transform="rotate(0,105,185)"/><path d="M 100 190 v 10 h 5 a 5 5, 0, 0, 0, 0 -10 z" transform="rotate(90,105,195)"/><path d="M 100 210 v 10 h 5 a 5 5, 0, 0, 0, 0 -10 z" transform="rotate(-90,105,215)"/><path d="M 100 220 v 10 h 5 a 5 5, 0, 0, 0, 0 -10 z" transform="rotate(90,105,225)"/><circle cx="105" cy="245" r="5" transform="rotate(0,105,245)"/><circle cx="115" cy="35" r="5" transform="rotate(0,115,35)"/><circle cx="115" cy="55" r="5" transform="rotate(0,115,55)"/><circle cx="115" cy="75" r="5" transform="rotate(0,115,75)"/><path d="M 110 90 v 10 h 5 a 5 5, 0, 0, 0, 0 -10 z" transform="rotate(-90,115,95)"/><path d="M 110 100 v 10 h 5 a 5 5, 0, 0, 0, 0 -10 z" transform="rotate(90,115,105)"/><path d="M 110 120 v 10 h 5 a 5 5, 0, 0, 0, 0 -10 z" transform="rotate(-90,115,125)"/><path d="M 110 130 v 10 h 5 a 5 5, 0, 0, 0, 0 -10 z" transform="rotate(90,115,135)"/><path d="M 110 150 v 10 h 5 a 5 5, 0, 0, 0, 0 -10 z" transform="rotate(-90,115,155)"/><rect x="110" y="160" width="10" height="10" transform="rotate(0,115,165)"/><path d="M 110 170 v 10 h 5 a 5 5, 0, 0, 0, 0 -10 z" transform="rotate(90,115,175)"/><circle cx="115" cy="205" r="5" transform="rotate(0,115,205)"/><circle cx="115" cy="225" r="5" transform="rotate(0,115,225)"/><circle cx="115" cy="255" r="5" transform="rotate(0,115,255)"/><path d="M 120 20 v 10 h 5 a 5 5, 0, 0, 0, 0 -10 z" transform="rotate(-90,125,25)"/><path d="M 120 30 v 10 h 5 a 5 5, 0, 0, 0, 0 -10 z" transform="rotate(90,125,35)"/><circle cx="125" cy="65" r="5" transform="rotate(0,125,65)"/><path d="M 120 90 v 10 h 5 a 5 5, 0, 0, 0, 0 -10 z" transform="rotate(-90,125,95)"/><rect x="120" y="100" width="10" height="10" transform="rotate(0,125,105)"/><path d="M 120 110 v 10 h 5 a 5 5, 0, 0, 0, 0 -10 z" transform="rotate(90,125,115)"/><circle cx="125" cy="145" r="5" transform="rotate(0,125,145)"/><circle cx="125" cy="175" r="5" transform="rotate(0,125,175)"/><circle cx="125" cy="195" r="5" transform="rotate(0,125,195)"/><circle cx="125" cy="215" r="5" transform="rotate(0,125,215)"/><circle cx="125" cy="235" r="5" transform="rotate(0,125,235)"/><circle cx="135" cy="15" r="5" transform="rotate(0,135,15)"/><path d="M 130 30 v 10 h 5 a 5 5, 0, 0, 0, 0 -10 z" transform="rotate(-90,135,35)"/><rect x="130" y="40" width="10" height="10" transform="rotate(0,135,45)"/><rect x="130" y="50" width="10" height="10" transform="rotate(0,135,55)"/><rect x="130" y="60" width="10" height="10" transform="rotate(0,135,65)"/><rect x="130" y="70" width="10" height="10" transform="rotate(0,135,75)"/><rect x="130" y="80" width="10" height="10" transform="rotate(0,135,85)"/><rect x="130" y="90" width="10" height="10" transform="rotate(0,135,95)"/><path d="M 130 100 v 10 h 5 a 5 5, 0, 0, 0, 0 -10 z" transform="rotate(90,135,105)"/><circle cx="135" cy="125" r="5" transform="rotate(0,135,125)"/><path d="M 130 150 v 10 h 5 a 5 5, 0, 0, 0, 0 -10 z" transform="rotate(-90,135,155)"/><path d="M 130 160 v 10 h 5 a 5 5, 0, 0, 0, 0 -10 z" transform="rotate(90,135,165)"/><path d="M 130 180 v 10 h 5 a 5 5, 0, 0, 0, 0 -10 z" transform="rotate(-90,135,185)"/><rect x="130" y="190" width="10" height="10" transform="rotate(0,135,195)"/><rect x="130" y="200" width="10" height="10" transform="rotate(0,135,205)"/><rect x="130" y="210" width="10" height="10" transform="rotate(0,135,215)"/><rect x="130" y="220" width="10" height="10" transform="rotate(0,135,225)"/><path d="M 130 230 v 10 h 5 a 5 5, 0, 0, 0, 0 -10 z" transform="rotate(90,135,235)"/><circle cx="135" cy="255" r="5" transform="rotate(0,135,255)"/><path d="M 140 20 v 10 h 5 a 5 5, 0, 0, 0, 0 -10 z" transform="rotate(-90,145,25)"/><path d="M 140 30 v 10 h 5 a 5 5, 0, 0, 0, 0 -10 z" transform="rotate(90,145,35)"/><circle cx="145" cy="55" r="5" transform="rotate(0,145,55)"/><path d="M 140 80 v 10 h 5 a 5 5, 0, 0, 0, 0 -10 z" transform="rotate(-90,145,85)"/><path d="M 140 90 v 10 h 5 a 5 5, 0, 0, 0, 0 -10 z" transform="rotate(90,145,95)"/><circle cx="145" cy="125" r="5" transform="rotate(0,145,125)"/><circle cx="145" cy="145" r="5" transform="rotate(0,145,145)"/><circle cx="145" cy="165" r="5" transform="rotate(0,145,165)"/><circle cx="145" cy="185" r="5" transform="rotate(0,145,185)"/><path d="M 140 210 v 10 h 5 a 5 5, 0, 0, 0, 0 -10 z" transform="rotate(-90,145,215)"/><rect x="140" y="220" width="10" height="10" transform="rotate(0,145,225)"/><path d="M 140 230 v 10 h 5 a 5 5, 0, 0, 0, 0 -10 z" transform="rotate(90,145,235)"/><circle cx="155" cy="15" r="5" transform="rotate(0,155,15)"/><path d="M 150 50 v 10 h 5 a 5 5, 0, 0, 0, 0 -10 z" transform="rotate(-90,155,55)"/><rect x="150" y="60" width="10" height="10" transform="rotate(0,155,65)"/><rect x="150" y="70" width="10" height="10" transform="rotate(0,155,75)"/><rect x="150" y="80" width="10" height="10" transform="rotate(0,155,85)"/><path d="M 150 90 v 10 h 5 a 5 5, 0, 0, 0, 0 -10 z" transform="rotate(90,155,95)"/><path d="M 150 110 v 10 h 5 a 5 5, 0, 0, 0, 0 -10 z" transform="rotate(-90,155,115)"/><path d="M 150 120 v 10 h 5 a 5 5, 0, 0, 0, 0 -10 z" transform="rotate(90,155,125)"/><circle cx="155" cy="155" r="5" transform="rotate(0,155,155)"/><circle cx="155" cy="225" r="5" transform="rotate(0,155,225)"/><circle cx="155" cy="255" r="5" transform="rotate(0,155,255)"/><path d="M 160 40 v 10 h 5 a 5 5, 0, 0, 0, 0 -10 z" transform="rotate(-90,165,45)"/><path d="M 160 50 v 10 h 5 a 5 5, 0, 0, 0, 0 -10 z" transform="rotate(90,165,55)"/><circle cx="165" cy="125" r="5" transform="rotate(0,165,125)"/><circle cx="165" cy="145" r="5" transform="rotate(0,165,145)"/><circle cx="165" cy="165" r="5" transform="rotate(0,165,165)"/><circle cx="165" cy="185" r="5" transform="rotate(0,165,185)"/><circle cx="165" cy="205" r="5" transform="rotate(0,165,205)"/><path d="M 160 220 v 10 h 5 a 5 5, 0, 0, 0, 0 -10 z" transform="rotate(-90,165,225)"/><path d="M 160 230 v 10 h 5 a 5 5, 0, 0, 0, 0 -10 z" transform="rotate(90,165,235)"/><path d="M 170 10 v 10 h 5 a 5 5, 0, 0, 0, 0 -10 z" transform="rotate(-90,175,15)"/><path d="M 170 20 v 10 h 5 a 5 5, 0, 0, 0, 0 -10 z" transform="rotate(90,175,25)"/><path d="M 170 50 v 10 h 5 a 5 5, 0, 0, 0, 0 -10 z" transform="rotate(-90,175,55)"/><rect x="170" y="60" width="10" height="10" transform="rotate(0,175,65)"/><rect x="170" y="70" width="10" height="10" transform="rotate(0,175,75)"/><rect x="170" y="80" width="10" height="10" transform="rotate(0,175,85)"/><rect x="170" y="90" width="10" height="10" transform="rotate(0,175,95)"/><path d="M 170 100 v 10 h 5 a 5 5, 0, 0, 0, 0 -10 z" transform="rotate(90,175,105)"/><path d="M 170 150 v 10 h 5 a 5 5, 0, 0, 0, 0 -10 z" transform="rotate(-90,175,155)"/><rect x="170" y="160" width="10" height="10" transform="rotate(0,175,165)"/><rect x="170" y="170" width="10" height="10" transform="rotate(0,175,175)"/><rect x="170" y="180" width="10" height="10" transform="rotate(0,175,185)"/><rect x="170" y="190" width="10" height="10" transform="rotate(0,175,195)"/><rect x="170" y="200" width="10" height="10" transform="rotate(0,175,205)"/><rect x="170" y="210" width="10" height="10" transform="rotate(0,175,215)"/><rect x="170" y="220" width="10" height="10" transform="rotate(0,175,225)"/><path d="M 170 230 v 10 h 5 a 5 5, 0, 0, 0, 0 -10 z" transform="rotate(90,175,235)"/><path d="M 180 130 v 10 h 5 a 5 5, 0, 0, 0, 0 -10 z" transform="rotate(-90,185,135)"/><rect x="180" y="140" width="10" height="10" transform="rotate(0,185,145)"/><path d="M 180 150 v 10 h 5 a 5 5, 0, 0, 0, 0 -10 z" transform="rotate(90,185,155)"/><circle cx="185" cy="175" r="5" transform="rotate(0,185,175)"/><path d="M 180 210 v 10 h 5 a 5 5, 0, 0, 0, 0 -10 z" transform="rotate(-90,185,215)"/><path d="M 180 220 v 10 h 5 a 5 5, 0, 0, 0, 0 -10 z" transform="rotate(90,185,225)"/><circle cx="195" cy="95" r="5" transform="rotate(0,195,95)"/><path d="M 190 110 v 10 h 5 a 5 5, 0, 0, 0, 0 -10 z" transform="rotate(-90,195,115)"/><rect x="190" y="120" width="10" height="10" transform="rotate(0,195,125)"/><rect x="190" y="130" width="10" height="10" transform="rotate(0,195,135)"/><path d="M 190 140 v 10 h 5 a 5 5, 0, 0, 0, 0 -10 z" transform="rotate(90,195,145)"/><path d="M 190 160 v 10 h 5 a 5 5, 0, 0, 0, 0 -10 z" transform="rotate(-90,195,165)"/><path d="M 190 170 v 10 h 5 a 5 5, 0, 0, 0, 0 -10 z" transform="rotate(90,195,175)"/><circle cx="195" cy="195" r="5" transform="rotate(0,195,195)"/><path d="M 190 210 v 10 h 5 a 5 5, 0, 0, 0, 0 -10 z" transform="rotate(-90,195,215)"/><rect x="190" y="220" width="10" height="10" transform="rotate(0,195,225)"/><path d="M 190 230 v 10 h 5 a 5 5, 0, 0, 0, 0 -10 z" transform="rotate(90,195,235)"/><circle cx="195" cy="255" r="5" transform="rotate(0,195,255)"/><path d="M 200 100 v 10 h 5 a 5 5, 0, 0, 0, 0 -10 z" transform="rotate(-90,205,105)"/><path d="M 200 110 v 10 h 5 a 5 5, 0, 0, 0, 0 -10 z" transform="rotate(90,205,115)"/><circle cx="205" cy="145" r="5" transform="rotate(0,205,145)"/><path d="M 200 160 v 10 h 5 a 5 5, 0, 0, 0, 0 -10 z" transform="rotate(-90,205,165)"/><path d="M 200 170 v 10 h 5 a 5 5, 0, 0, 0, 0 -10 z" transform="rotate(90,205,175)"/><circle cx="205" cy="215" r="5" transform="rotate(0,205,215)"/><circle cx="205" cy="255" r="5" transform="rotate(0,205,255)"/><circle cx="215" cy="115" r="5" transform="rotate(0,215,115)"/><path d="M 210 130 v 10 h 5 a 5 5, 0, 0, 0, 0 -10 z" transform="rotate(-90,215,135)"/><rect x="210" y="140" width="10" height="10" transform="rotate(0,215,145)"/><rect x="210" y="150" width="10" height="10" transform="rotate(0,215,155)"/><rect x="210" y="160" width="10" height="10" transform="rotate(0,215,165)"/><rect x="210" y="170" width="10" height="10" transform="rotate(0,215,175)"/><rect x="210" y="180" width="10" height="10" transform="rotate(0,215,185)"/><rect x="210" y="190" width="10" height="10" transform="rotate(0,215,195)"/><rect x="210" y="200" width="10" height="10" transform="rotate(0,215,205)"/><rect x="210" y="210" width="10" height="10" transform="rotate(0,215,215)"/><rect x="210" y="220" width="10" height="10" transform="rotate(0,215,225)"/><rect x="210" y="230" width="10" height="10" transform="rotate(0,215,235)"/><rect x="210" y="240" width="10" height="10" transform="rotate(0,215,245)"/><path d="M 210 250 v 10 h 5 a 5 5, 0, 0, 0, 0 -10 z" transform="rotate(90,215,255)"/><circle cx="225" cy="95" r="5" transform="rotate(0,225,95)"/><circle cx="225" cy="125" r="5" transform="rotate(0,225,125)"/><circle cx="225" cy="175" r="5" transform="rotate(0,225,175)"/><path d="M 220 210 v 10 h 5 a 5 5, 0, 0, 0, 0 -10 z" transform="rotate(-90,225,215)"/><path d="M 220 220 v 10 h 5 a 5 5, 0, 0, 0, 0 -10 z" transform="rotate(90,225,225)"/><circle cx="225" cy="255" r="5" transform="rotate(0,225,255)"/><path d="M 230 120 v 10 h 5 a 5 5, 0, 0, 0, 0 -10 z" transform="rotate(-90,235,125)"/><path d="M 230 130 v 10 h 5 a 5 5, 0, 0, 0, 0 -10 z" transform="rotate(90,235,135)"/><circle cx="235" cy="155" r="5" transform="rotate(0,235,155)"/><path d="M 230 170 v 10 h 5 a 5 5, 0, 0, 0, 0 -10 z" transform="rotate(-90,235,175)"/><rect x="230" y="180" width="10" height="10" transform="rotate(0,235,185)"/><path d="M 230 190 v 10 h 5 a 5 5, 0, 0, 0, 0 -10 z" transform="rotate(90,235,195)"/><path d="M 230 220 v 10 h 5 a 5 5, 0, 0, 0, 0 -10 z" transform="rotate(-90,235,225)"/><rect x="230" y="230" width="10" height="10" transform="rotate(0,235,235)"/><rect x="230" y="240" width="10" height="10" transform="rotate(0,235,245)"/><path d="M 230 250 v 10 h 5 a 5 5, 0, 0, 0, 0 -10 z" transform="rotate(90,235,255)"/><path d="M 240 90 v 10 h 5 a 5 5, 0, 0, 0, 0 -10 z" transform="rotate(-90,245,95)"/><path d="M 240 100 v 10 h 5 a 5 5, 0, 0, 0, 0 -10 z" transform="rotate(90,245,105)"/><circle cx="245" cy="135" r="5" transform="rotate(0,245,135)"/><circle cx="245" cy="155" r="5" transform="rotate(0,245,155)"/><circle cx="245" cy="175" r="5" transform="rotate(0,245,175)"/><path d="M 240 190 v 10 h 5 a 5 5, 0, 0, 0, 0 -10 z" transform="rotate(-90,245,195)"/><path d="M 240 200 v 10 h 5 a 5 5, 0, 0, 0, 0 -10 z" transform="rotate(90,245,205)"/><path d="M 240 220 v 10 h 5 a 5 5, 0, 0, 0, 0 -10 z" transform="rotate(-90,245,225)"/><path d="M 240 230 v 10 h 5 a 5 5, 0, 0, 0, 0 -10 z" transform="rotate(90,245,235)"/><circle cx="245" cy="255" r="5" transform="rotate(0,245,255)"/><circle cx="255" cy="95" r="5" transform="rotate(0,255,95)"/><path d="M 250 130 v 10 h 5 a 5 5, 0, 0, 0, 0 -10 z" transform="rotate(-90,255,135)"/><path d="M 250 140 v 10 h 5 a 5 5, 0, 0, 0, 0 -10 z" transform="rotate(90,255,145)"/><path d="M 250 160 v 10 h 5 a 5 5, 0, 0, 0, 0 -10 z" transform="rotate(-90,255,165)"/><rect x="250" y="170" width="10" height="10" transform="rotate(0,255,175)"/><rect x="250" y="180" width="10" height="10" transform="rotate(0,255,185)"/><rect x="250" y="190" width="10" height="10" transform="rotate(0,255,195)"/><path d="M 250 200 v 10 h 5 a 5 5, 0, 0, 0, 0 -10 z" transform="rotate(90,255,205)"/><circle cx="255" cy="225" r="5" transform="rotate(0,255,225)"/><circle cx="255" cy="255" r="5" transform="rotate(0,255,255)"/></g></mask><mask id="mask-corners-square-color-0-0-2-2" maskUnits="userSpaceOnUse" x="0" y="0" width="270" height="270"><g fill="#fff"><path clip-rule="evenodd" d="M 10 35 v 20 a 25 25, 0, 0, 0, 25 25 h 20 a 25 25, 0, 0, 0, 25 -25 v -20 a 25 25, 0, 0, 0, -25 -25 h -20 a 25 25, 0, 0, 0, -25 25 z M 35 20 h 20 a 15 15, 0, 0, 1, 15 15 v 20 a 15 15, 0, 0, 1, -15 15 h -20 a 15 15, 0, 0, 1, -15 -15 v -20 a 15 15, 0, 0, 1, 15 -15 z" transform="rotate(0,45,45)"/></g></mask><mask id="mask-corners-dot-color-0-0-2-2" maskUnits="userSpaceOnUse" x="0" y="0" width="270" height="270"><g fill="#fff"><circle cx="45" cy="45" r="14.2857143" transform="rotate(0,45,45)"/></g></mask><mask id="mask-corners-square-color-1-0-2-2" maskUnits="userSpaceOnUse" x="0" y="0" width="270" height="270"><g fill="#fff"><path clip-rule="evenodd" d="M 190 35 v 20 a 25 25, 0, 0, 0, 25 25 h 20 a 25 25, 0, 0, 0, 25 -25 v -20 a 25 25, 0, 0, 0, -25 -25 h -20 a 25 25, 0, 0, 0, -25 25 z M 215 20 h 20 a 15 15, 0, 0, 1, 15 15 v 20 a 15 15, 0, 0, 1, -15 15 h -20 a 15 15, 0, 0, 1, -15 -15 v -20 a 15 15, 0, 0, 1, 15 -15 z" transform="rotate(90,225,45)"/></g></mask><mask id="mask-corners-dot-color-1-0-2-2" maskUnits="userSpaceOnUse" x="0" y="0" width="270" height="270"><g fill="#fff"><circle cx="225" cy="45" r="14.2857143" transform="rotate(90,225,45)"/></g></mask><mask id="mask-corners-square-color-0-1-2-2" maskUnits="userSpaceOnUse" x="0" y="0" width="270" height="270"><g fill="#fff"><path clip-rule="evenodd" d="M 10 215 v 20 a 25 25, 0, 0, 0, 25 25 h 20 a 25 25, 0, 0, 0, 25 -25 v -20 a 25 25, 0, 0, 0, -25 -25 h -20 a 25 25, 0, 0, 0, -25 25 z M 35 200 h 20 a 15 15, 0, 0, 1, 15 15 v 20 a 15 15, 0, 0, 1, -15 15 h -20 a 15 15, 0, 0, 1, -15 -15 v -20 a 15 15, 0, 0, 1, 15 -15 z" transform="rotate(-90,45,225)"/></g></mask><mask id="mask-corners-dot-color-0-1-2-2" maskUnits="userSpaceOnUse" x="0" y="0" width="270" height="270"><g fill="#fff"><circle cx="45" cy="225" r="14.2857143" transform="rotate(-90,45,225)"/></g></mask></defs><rect x="0" y="0" height="270" width="270" style="mask:url(#mask-background-color-2-2)" fill="#ffffff"/><g><g transform="translate(4, 4) scale(0.9703703703703703)"><rect x="10" y="10" height="250" width="250" style="mask:url(#mask-dot-color-2-2)" fill="#0f6e56"/><rect x="10" y="10" height="70" width="70" style="mask:url(#mask-corners-square-color-0-0-2-2)" fill="#000000"/><rect x="30" y="30" height="30" width="30" style="mask:url(#mask-corners-dot-color-0-0-2-2)" fill="#000000"/><rect x="190" y="10" height="70" width="70" style="mask:url(#mask-corners-square-color-1-0-2-2)" fill="#000000"/><rect x="210" y="30" height="30" width="30" style="mask:url(#mask-corners-dot-color-1-0-2-2)" fill="#000000"/><rect x="10" y="190" height="70" width="70" style="mask:url(#mask-corners-square-color-0-1-2-2)" fill="#000000"/><rect x="30" y="210" height="30" width="30" style="mask:url(#mask-corners-dot-color-0-1-2-2)" fill="#000000"/></g></g></svg>